<svg xmlns="http://www.w3.org/2000/svg" viewBox="0 0 640 480">
  <path fill="#de2910" d="M0 0h640v480H0z"/>
  <path fill="#ffde00" d="m103.7 58.2 18.6 57.2h60.1l-48.6 35.3 18.6 57.2-48.7-35.3-48.6 35.3 18.6-57.2-48.6-35.3h60.1z"/>
  <path fill="#ffde00" d="m224.8 48.3 14.4 12.8 17.5-8-7.7 17.6 13 14.2-19.2-1.9-9.5 16.7-4.1-18.8-18.9-3.9 16.6-9.8z"/>
  <path fill="#ffde00" d="m275.2 109.4 9.8 16.6 18.8-4.1-12.8 14.4 9.8 16.6-17.6-7.7-12.8 14.4 1.9-19.2-17.6-7.7 18.8-4.1z"/>
  <path fill="#ffde00" d="m276.5 188.8-1.9 19.2 17.6 7.7-18.8 4.1-1.9 19.2-9.8-16.6-18.8 4.1 12.8-14.4-9.8-16.6 17.6 7.7z"/>
  <path fill="#ffde00" d="m225.4 250.4-14.4 12.8 7.7 17.6-16.6-9.8-14.4 12.8 4.1-18.8-16.6-9.8 19.2-1.9 4.1-18.8 7.7 17.6z"/>
</svg>
